Coordinates
version=1
nRows=26
nColumns=22
inDegrees=yes

Units are S.I. units (second, meters, Newtons, ...)
If the header above contains a line with 'inDegrees', this indicates whether rotational values are in degrees (yes) or radians (no).

endheader
time	pelvis_tilt	pelvis_list	pelvis_rotation	pelvis_tx	pelvis_ty	pelvis_tz	hip_flexion_r	hip_adduction_r	hip_rotation_r	knee_angle_r	ankle_angle_r	subtalar_angle_r	hip_flexion_l	hip_adduction_l	hip_rotation_l	knee_angle_l	ankle_angle_l	subtalar_angle_l	lumbar_extension	lumbar_bending	lumbar_rotation
      3.55000000	     -4.56752208	     -4.29717924	      1.19692908	      0.03007080	      1.00564670	      0.17215285	     19.33229425	      2.57182833	     -5.68205000	    -22.90830379	      4.87914018	     -1.75308886	      5.30793542	     -9.00189806	     -5.08878108	    -41.99323840	      6.42344051	      6.78112659	     -2.00249606	      0.49519714	     -3.83638201
      3.56000000	     -4.67734910	     -4.36412444	      1.31258915	      0.02278212	      1.00450787	      0.16958219	     20.04663324	      2.42931512	     -5.74913345	    -23.17138864	      4.54403059	     -1.72546362	      4.34381698	     -8.85955567	     -4.72797267	    -40.37592896	      6.07667633	      7.18791113	     -1.91969300	      0.61643772	     -4.16089871
      3.57000000	     -4.79622608	     -4.43539686	      1.43905111	      0.01530628	      1.00329881	      0.16687323	     20.76755435	      2.27725702	     -5.82169716	    -23.40643134	      4.17141800	     -1.69785328	      3.42544998	     -8.70698287	     -4.35892203	    -38.66021847	      5.97939832	      7.58092940	     -1.84640767	      0.74354455	     -4.48138221
      3.58000000	     -4.91870034	     -4.51421561	      1.57398077	      0.00764786	      1.00203160	      0.16405480	     21.48046287	      2.12232758	     -5.90422604	    -23.59861627	      3.77201570	     -1.67481410	      2.55497281	     -8.55507279	     -4.00764398	    -36.85764888	      6.20206640	      7.97282119	     -1.78939941	      0.87464542	     -4.79849766
      3.59000000	     -5.04684922	     -4.61675565	      1.70746125	     -0.00020317	      1.00071256	      0.16114929	     22.17968238	      1.98574048	     -5.98730286	    -23.73074838	      3.33485050	     -1.65720893	      1.75089097	     -8.42816523	     -3.70747486	    -35.00068791	      6.77641526	      8.37154579	     -1.74854827	      1.02895747	     -5.08776476
      3.60000000	     -5.18414697	     -4.73304843	      1.83827220	     -0.00824204	      0.99935304	      0.15816506	     22.86067194	      1.85690128	     -6.07521695	    -23.78807872	      2.85604045	     -1.63616402	      1.03387178	     -8.32525334	     -3.51746869	    -33.12190500	      7.66593651	      8.71455378	     -1.71829850	      1.19543264	     -5.36655443
      3.61000000	     -5.33347062	     -4.86046525	      1.95341023	     -0.01647450	      0.99797522	      0.15514011	     23.52106360	      1.74076708	     -6.15144515	    -23.75915963	      2.32427315	     -1.60666313	      0.42208093	     -8.24250217	     -3.46271839	    -31.26124605	      8.79929374	      8.97652927	     -1.69795210	      1.36666927	     -5.61298033
      3.62000000	     -5.50419532	     -4.95158228	      2.05560117	     -0.02491806	      0.99659288	      0.15205225	     24.17693581	      1.58347391	     -6.21476619	    -23.65987575	      1.75525843	     -1.53956437	     -0.06000514	     -8.11853835	     -3.53528205	    -29.45644470	     10.04802892	      8.98784030	     -1.68108273	      1.48975995	     -5.83781997
      3.63000000	     -5.65315983	     -5.06860670	      2.13032104	     -0.03347489	      0.99530442	      0.14899632	     24.74073276	      1.46798118	     -6.26783155	    -23.41578950	      1.15062424	     -1.49080576	     -0.44941570	     -8.04091107	     -3.81392368	    -27.75800801	     11.39545400	      9.06505686	     -1.70439064	      1.63249419	     -6.01937148
      3.64000000	     -5.80876748	     -5.11258291	      2.19784498	     -0.04222072	      0.99409788	      0.14589475	     25.28639160	      1.27183122	     -6.32276809	    -23.11705887	      0.52229495	     -1.40325789	     -0.71455577	     -7.86695064	     -4.14073498	    -26.17517403	     12.66004893	      8.95990123	     -1.74980920	      1.68124889	     -6.17845995
      3.65000000	     -5.97126424	     -5.15560392	      2.19846806	     -0.05103906	      0.99299166	      0.14291653	     25.76545839	      1.11137788	     -6.30803483	    -22.66926578	     -0.11952073	     -1.29727565	     -0.85845267	     -7.70389336	     -4.67782944	    -24.75606979	     13.84432498	      8.72076418	     -1.79620981	      1.71609960	     -6.24413580
      3.66000000	     -6.13068410	     -5.14103692	      2.16911792	     -0.05995709	      0.99200962	      0.13998650	     26.20465809	      0.90268848	     -6.28112240	    -22.15593406	     -0.73388836	     -1.14312642	     -0.90474469	     -7.46785537	     -5.25293563	    -23.47802163	     14.87613819	      8.33599767	     -1.86258979	      1.67424642	     -6.26330586
      3.67000000	     -6.28688475	     -5.07404364	      2.11638558	     -0.06893178	      0.99115354	      0.13712976	     26.58991990	      0.65183652	     -6.25037768	    -21.55823236	     -1.27397121	     -0.92237827	     -0.85732377	     -7.17165946	     -5.84799676	    -22.34939665	     15.75604799	      7.81879106	     -1.94119738	      1.55955258	     -6.24186291
      3.68000000	     -6.43339197	     -4.98155111	      2.02044038	     -0.07792257	      0.99042922	      0.13440485	     26.91771158	      0.40078194	     -6.18131140	    -20.88469136	     -1.73059826	     -0.68226524	     -0.74308450	     -6.85047950	     -6.46362588	    -21.35483221	     16.51384700	      7.32200515	     -2.03216671	      1.40870095	     -6.17983701
      3.69000000	     -6.57019379	     -4.85097446	      1.92017600	     -0.08689261	      0.98981799	      0.13172881	     27.19748142	      0.10272007	     -6.20100242	    -20.16794446	     -2.01780067	     -0.32745406	     -0.56967328	     -6.48300319	     -6.99966483	    -20.47673051	     17.13094811	      6.65842112	     -2.13068997	      1.20756585	     -6.07416769
      3.70000000	     -6.68926969	     -4.71543602	      1.76416240	     -0.09579022	      0.98933046	      0.12924405	     27.41926526	     -0.16808604	     -6.20656629	    -19.40290730	     -2.16485167	     -0.01997945	     -0.37000758	     -6.12085780	     -7.54640503	    -19.69645068	     17.66171155	      6.10526005	     -2.23775351	      0.99382143	     -5.90180020
      3.71000000	     -6.78981535	     -4.56750935	      1.62052085	     -0.10459859	      0.98895467	      0.12677808	     27.60299206	     -0.47464674	     -6.38371079	    -18.64697278	     -2.11933453	      0.39142111	     -0.14218050	     -5.74181600	     -7.97146840	    -18.99866155	     18.08428339	      5.42626628	     -2.35080269	      0.76991744	     -5.70924567
      3.72000000	     -6.86524932	     -4.42108227	      1.45363221	     -0.11327485	      0.98870420	      0.12443871	     27.74043544	     -0.77085572	     -6.65087264	    -17.90266627	     -1.91231405	      0.76989356	      0.09273126	     -5.37323481	     -8.36148603	    -18.37618241	     18.44201774	      4.79656044	     -2.47403886	      0.54810933	     -5.48312577
      3.73000000	     -6.91362794	     -4.27545176	      1.27676615	     -0.12179085	      0.98858839	      0.12219571	     27.84376691	     -1.06633100	     -7.04464379	    -17.21290861	     -1.54993196	      1.12234373	      0.32507298	     -5.01185530	     -8.70660954	    -17.81362155	     18.73213734	      4.18584744	     -2.60737204	      0.33085775	     -5.23172079
      3.74000000	     -6.93607717	     -4.14282831	      1.09422636	     -0.13013049	      0.98862007	      0.12004540	     27.92615706	     -1.35366524	     -7.60599874	    -16.61278216	     -1.12472759	      1.47120733	      0.55644904	     -4.67069443	     -9.00583693	    -17.31258000	     18.95783806	      3.58005663	     -2.74779437	      0.13166202	     -4.95465198
      3.75000000	     -6.92992702	     -4.02023984	      0.90311979	     -0.13828974	      0.98882497	      0.11799973	     27.99553927	     -1.62994150	     -8.29565624	    -16.14051796	     -0.68884976	      1.80188249	      0.78313204	     -4.34898053	     -9.28672388	    -16.87270988	     19.10332639	      2.99542535	     -2.90045746	     -0.05264486	     -4.63680836
      3.76000000	     -6.89291670	     -3.90058191	      0.71118534	     -0.14622628	      0.98921477	      0.11607010	     28.04606259	     -1.89914666	     -9.05683213	    -15.81971966	     -0.22266309	      2.06418983	      0.99438757	     -4.04090679	     -9.55540572	    -16.48018961	     19.19338826	      2.48787250	     -3.06063930	     -0.23104576	     -4.33111903
      3.77000000	     -6.82570382	     -3.78890840	      0.51091607	     -0.15399225	      0.98981491	      0.11427124	     28.09775591	     -2.15667844	     -9.86555330	    -15.69599436	      0.17920485	      2.32516660	      1.20567683	     -3.75322901	     -9.80094796	    -16.16121552	     19.18036235	      1.98177428	     -3.23931092	     -0.40164961	     -3.99148460
      3.78000000	     -6.72734041	     -3.67868075	      0.31460451	     -0.16155600	      0.99062352	      0.11258857	     28.13918644	     -2.41080888	    -10.64818845	    -15.77604979	      0.55697837	      2.52324478	      1.41610343	     -3.48204305	    -10.02637351	    -15.91678041	     19.09079392	      1.56270385	     -3.42874673	     -0.56915252	     -3.65584939
      3.79000000	     -6.60513127	     -3.57635756	      0.12436340	     -0.16894383	      0.99163551	      0.11102854	     28.17155371	     -2.65366949	    -11.34061472	    -16.05611942	      0.88183520	      2.70641621	      1.64505750	     -3.23885994	    -10.23995553	    -15.76619122	     18.90319539	      1.16372892	     -3.62458000	     -0.72758709	     -3.33752901
      3.80000000	     -6.45318354	     -3.47083202	     -0.05452782	     -0.17612913	      0.99284087	      0.10957806	     28.18775709	     -2.89832649	    -11.89688196	    -16.54614181	      1.21329150	      2.79365950	      1.86340794	     -3.00600757	    -10.38884095	    -15.66990152	     18.66391848	      0.93446541	     -3.82723368	     -0.88866080	     -3.04221953
